<svg width="195" height="205" viewBox="0 0 195 205" fill="none" xmlns="http://www.w3.org/2000/svg">
<path d="M34.141 204.084C21.3345 204.077 12.9429 195.044 9.54285 187.142C7.62265 183.194 0 166.612 0 152.214C0 138.165 8.26868 124.824 20.5499 117.811V115.692C20.5499 107.488 27.2247 100.814 35.4286 100.814H44.5825C40.5945 87.9757 36.1685 61.7949 55.7527 39.2444C58.5961 35.983 62.6868 34.1231 66.9922 34.1231C67.0235 34.1231 67.0548 34.1231 67.0883 34.1231C78.1199 19.3584 100.355 0 141.073 0C154.143 0 168.391 2.0409 183.42 6.06683C188.141 7.33876 191.934 10.8371 193.58 15.4308C195.223 20.0536 194.498 25.1659 191.646 29.1293C190.557 30.6404 189.518 32.1649 188.494 33.6649L188.284 33.9711C184.712 39.2131 181.008 44.6451 175.947 49.3483C172.585 52.4734 167.982 55.8935 162.624 58.8263C162.655 62.6645 161.193 66.4199 158.426 69.279C133.915 94.55 112.446 107.046 95.7459 113.028C95.9024 113.893 95.9851 114.782 95.9851 115.692V117.811C108.264 124.822 116.535 138.165 116.535 152.214C116.535 166.59 108.91 183.192 106.994 187.14C103.599 195.033 95.2183 204.064 82.4387 204.084H34.141Z" fill="#F2F2F2"/>
<path d="M131.281 50.7695C144.565 53.4306 159.002 44.7818 165.816 38.4502C171.025 33.6102 174.885 26.9498 179.568 20.4412C90.2695 -3.49325 71.2036 56.9454 71.2036 56.9454C71.2036 56.9454 68.4342 58.6419 66.9885 48.9987C46.4007 72.7033 61.0884 102.466 61.0884 102.466C61.0884 102.466 95.5169 112.768 147.739 58.926C139.083 57.6306 135.824 55.5498 131.281 50.7695Z" fill="#FF7575" stroke="#40396E" stroke-width="5" stroke-miterlimit="10" stroke-linecap="round" stroke-linejoin="round"/>
<path d="M81.1069 127.964V115.694C81.1069 115.694 81.1067 115.693 81.1064 115.693H35.4291V127.964C23.7725 130.127 14.8793 141.156 14.8793 152.215C14.8793 164.545 23.0991 180.993 23.0991 180.993C23.0991 180.993 26.1796 189.2 34.1399 189.205C47.4147 189.205 69.1387 189.205 82.4136 189.205C90.3594 189.191 93.4368 180.993 93.4368 180.993C93.4368 180.993 101.657 164.545 101.657 152.215C101.657 141.156 92.7634 130.127 81.1069 127.964Z" fill="#9AA2E6" stroke="#40396E" stroke-width="5" stroke-miterlimit="10" stroke-linecap="round" stroke-linejoin="round"/>
<path d="M134.269 35.3951C81.1151 54.163 54.0729 100.319 50.7246 149.772" stroke="#40396E" stroke-width="5" stroke-miterlimit="10" stroke-linecap="round" stroke-linejoin="round"/>
<path d="M88.5626 143.995H27.9734C26.3458 146.585 25.3882 149.478 25.3882 152.215C25.3882 160.739 30.6942 173.225 32.7409 177.315L32.9341 177.701L33.0821 178.104C33.0862 178.104 34.3562 180.985 36.4317 180.985H80.1002C82.1634 180.985 83.4416 178.137 83.4498 178.104L83.5978 177.701L83.7909 177.315C85.8377 173.213 91.1478 160.686 91.1478 152.215C91.1478 149.478 90.1902 146.585 88.5626 143.995Z" fill="#707CC0"/>
</svg>
