<svg width="20" height="16" viewBox="0 0 20 16" fill="none" xmlns="http://www.w3.org/2000/svg">
<path d="M20 1.89437C19.2641 2.21524 18.4736 2.43244 17.6431 2.52994C18.4906 2.03012 19.1412 1.23843 19.4474 0.295262C18.6545 0.758055 17.7769 1.09497 16.8417 1.27515C16.0942 0.490561 15.0279 0 13.8476 0C11.5815 0 9.74425 1.80798 9.74425 4.03957C9.74425 4.35612 9.78123 4.6628 9.85019 4.95898C6.4386 4.79053 3.41629 3.1834 1.39159 0.739235C1.03899 1.33655 0.836833 2.03012 0.836833 2.76936C0.836833 4.171 1.56146 5.40789 2.6622 6.13232C1.98959 6.11072 1.3568 5.92931 0.803611 5.62633C0.802984 5.64361 0.802984 5.66027 0.802984 5.67662C0.802984 7.63424 2.21745 9.26728 4.09515 9.63813C3.75039 9.73008 3.38808 9.77913 3.01385 9.77913C2.74901 9.77913 2.49169 9.75507 2.24158 9.70817C2.76406 11.3125 4.27882 12.4803 6.07472 12.5127C4.66997 13.5956 2.89977 14.242 0.978499 14.242C0.64784 14.242 0.32157 14.2235 0 14.1852C1.81596 15.332 3.97292 16 6.28941 16C13.8375 16 17.9643 9.84485 17.9643 4.5073C17.9643 4.33298 17.9603 4.15774 17.9524 3.98496C18.7542 3.41511 19.4499 2.70456 19.9997 1.89498L20 1.89437Z" fill="white"/>
</svg>
